<svg width="30" height="30" viewBox="0 0 30 30" fill="none" xmlns="http://www.w3.org/2000/svg">
<g id="&#229;&#189;&#147;&#229;&#137;&#141;&#229;&#138;&#159;&#231;&#142;&#135;">
<path id="&#229;&#189;&#147;&#229;&#137;&#141;&#229;&#138;&#159;&#231;&#142;&#135;_2" fill-rule="evenodd" clip-rule="evenodd" d="M0 15C0 23.25 6.75 30 15 30C23.25 30 30 23.25 30 15C30 12.375 29.25 9.75 28.125 7.5C27.75 6.9375 27.1875 6.9375 26.8125 7.125C26.25 7.5 26.25 8.0625 26.4375 8.4375C27.5625 10.5 28.125 12.75 28.125 15C28.125 22.3125 22.3125 28.125 15 28.125C7.6875 28.125 1.875 22.3125 1.875 15C1.875 7.6875 7.6875 1.875 15 1.875C17.8125 1.875 20.4375 2.625 22.6875 4.3125C23.0625 4.6875 23.625 4.5 24 4.125C24.375 3.75 24.1875 3.1875 23.8125 2.8125C21.1875 0.9375 18.1875 0 15 0C6.75 0 0 6.75 0 15ZM20.4375 15.9375H23.4375C24 15.9375 24.375 16.3125 24.375 16.875C24.375 17.25 24 17.8125 23.4375 17.8125H19.6875C19.3125 17.8125 18.9375 17.4375 18.75 17.0625L17.625 12.75L15 21C14.8125 21.375 14.4375 21.5625 14.0625 21.5625C13.5 21.5625 13.3125 21.1875 13.125 20.8125L11.8125 15.75L11.0625 17.25C11.0625 17.625 10.6875 17.8125 10.3125 17.8125H6.5625C6 17.8125 5.625 17.4375 5.625 16.875C5.625 16.5 6 15.9375 6.5625 15.9375H9.75L11.25 12.75C11.4375 12.375 11.8125 12.1875 12.1875 12.1875C12.5625 12.1875 12.9375 12.5625 13.125 12.9375L14.25 17.25L16.875 9C17.0625 8.625 17.4375 8.4375 17.8125 8.4375C18.1875 8.4375 18.5625 8.8125 18.75 9.1875L20.4375 15.9375Z" fill="#7989B2"/>
</g>
</svg>
