<svg width="30" height="19" viewBox="0 0 30 19" fill="none" xmlns="http://www.w3.org/2000/svg">
<g id="&#229;&#133;&#137;&#228;&#188;&#143;&#230;&#157;&#191;">
<g id="&#229;&#133;&#137;&#228;&#188;&#143;&#230;&#157;&#191;_2">
<path id="&#229;&#133;&#137;&#228;&#188;&#143;&#230;&#157;&#191;_3" fill-rule="evenodd" clip-rule="evenodd" d="M27.3614 2.6557L29.8863 13.3074C29.9037 13.3769 30.3386 15.1844 29.3833 16.5906C28.8214 17.4173 27.9226 17.9187 26.7119 18.081L26.6707 18.0865L3.27535 18.0845C3.20527 18.0787 1.54834 17.929 0.611506 16.6337C-0.00741121 15.7779 -0.157411 14.6613 0.165591 13.3149C0.756953 10.4684 2.7482 2.7222 2.76826 2.64419L2.78775 2.58211C2.82692 2.47671 3.77811 0.000167574 6.37847 0.000167574H23.8334L23.8596 0C24.7817 0 26.6706 0.540603 27.3472 2.60538L27.3614 2.6557ZM26.5861 16.8391C27.4064 16.7218 27.9989 16.4044 28.3476 15.895C28.9909 14.9556 28.677 13.6133 28.6737 13.5998L26.1539 2.97003C25.58 1.26532 23.8928 1.24741 23.8415 1.24741H6.37837C4.75007 1.24741 4.06147 2.76298 3.96642 2.99297C3.81381 3.58708 1.94654 10.8699 1.38488 13.5779L1.38042 13.5976C1.14474 14.5738 1.22433 15.347 1.61708 15.8955C2.16735 16.6644 3.20098 16.8196 3.35942 16.8391H26.5861ZM4.22638 6.49115L5.11529 2.68145L6.44862 1.7926H13.433L14.4489 2.68145V6.61812L13.3695 7.634H5.11529L4.22638 6.49115ZM2.51202 14.4267L3.54997 9.68287L5.10699 8.34961H13.2626L14.4489 9.68287V14.5749L13.1885 15.7613H3.54997L2.51202 14.4267ZM25.7699 6.49115L25.0778 2.68145L23.7444 1.7926H16.5632L15.5473 2.68145V6.61812L16.6267 7.634H24.8809L25.7699 6.49115ZM27.4842 14.4267L26.4462 9.68287L24.8892 8.34961H16.7336L15.5473 9.68287V14.5749L16.8077 15.7613H26.4462L27.4842 14.4267Z" fill="#7989B2"/>
</g>
</g>
</svg>
