<svg width="21" height="20" viewBox="0 0 21 20" fill="none" xmlns="http://www.w3.org/2000/svg">
<g id="&#229;&#156;&#168;&#231;&#186;&#191;&#232;&#174;&#190;&#229;&#164;&#135;">
<path id="&#229;&#156;&#168;&#231;&#186;&#191;&#232;&#174;&#190;&#229;&#164;&#135;_2" fill-rule="evenodd" clip-rule="evenodd" d="M1.2612 13.8268C0.758658 12.6136 0.5 11.3132 0.5 10C0.5 7.34783 1.55357 4.8043 3.42893 2.92893C5.3043 1.05357 7.84783 0 10.5 0C13.1522 0 15.6957 1.05357 17.5711 2.92893C19.4464 4.8043 20.5 7.34783 20.5 10C20.5 11.3132 20.2413 12.6136 19.7388 13.8268C19.2362 15.0401 18.4997 16.1425 17.5711 17.0711C16.6425 17.9997 15.5401 18.7362 14.3268 19.2388C13.1136 19.7413 11.8132 20 10.5 20C9.18678 20 7.88642 19.7413 6.67316 19.2388C5.45991 18.7362 4.35752 17.9997 3.42893 17.0711C2.50035 16.1425 1.76375 15.0401 1.2612 13.8268ZM6.9829 8.31952L7.90409 9.23547C8.09909 9.4288 8.41933 9.53476 8.66718 9.4669L9.47742 10.2774C9.3404 10.4153 9.17753 10.5249 8.99813 10.5999C8.81873 10.6749 8.62631 10.7137 8.43187 10.7143C8.23743 10.7148 8.04479 10.6771 7.86497 10.6031C7.68514 10.5292 7.52165 10.4205 7.38385 10.2833L5.93743 8.84619C5.79936 8.70917 5.68966 8.54628 5.6146 8.36683C5.53955 8.18738 5.5006 7.99489 5.50001 7.80038C5.49941 7.60587 5.53717 7.41314 5.61112 7.23324C5.68508 7.05333 5.79378 6.88977 5.931 6.75191L7.23576 5.43667C7.81337 4.85763 8.75123 4.85358 9.3298 5.42977L10.7779 6.86905C11.0562 7.14593 11.2132 7.52204 11.2143 7.91465C11.2154 8.30726 11.0604 8.68422 10.7836 8.96262L9.9567 8.15309C10.0403 7.895 9.93718 7.59976 9.73242 7.39548L8.81123 6.48048C8.74222 6.41182 8.66035 6.35744 8.5703 6.32045C8.48025 6.28347 8.38379 6.2646 8.28644 6.26493C8.18909 6.26526 8.09277 6.28479 8.00297 6.32239C7.91318 6.35999 7.83168 6.41492 7.76314 6.48405L6.97981 7.27262C6.8415 7.41192 6.76413 7.60042 6.76471 7.79671C6.7653 7.99301 6.84377 8.18105 6.9829 8.31952ZM13.6679 9.72166L15.0574 11.1026V11.1024C15.3398 11.3832 15.499 11.7647 15.5002 12.163C15.5014 12.5612 15.3443 12.9437 15.0636 13.2262L13.7405 14.5583C13.4594 14.8401 13.0781 14.999 12.6801 15C12.2821 15.001 11.8999 14.8441 11.6174 14.5638L10.2279 13.1828C9.94601 12.902 9.787 12.5208 9.78571 12.1228C9.78441 11.7249 9.94094 11.3427 10.221 11.06L11.0496 11.8762C10.9815 12.1271 11.0903 12.4509 11.2891 12.6486L12.1453 13.5002C12.2151 13.5697 12.298 13.6247 12.3892 13.6621C12.4803 13.6995 12.5779 13.7186 12.6765 13.7182C12.775 13.7178 12.8725 13.698 12.9633 13.6599C13.0542 13.6218 13.1366 13.5662 13.206 13.4962L14.0019 12.6986C14.1419 12.557 14.2201 12.3658 14.2193 12.1667C14.2185 11.9677 14.1388 11.777 13.9976 11.6367L13.1405 10.785C12.9324 10.5786 12.6326 10.4728 12.3707 10.5609L11.5446 9.72833C11.8254 9.4461 12.2067 9.28688 12.6048 9.28563C13.003 9.28438 13.3853 9.44121 13.6679 9.72166ZM8.83336 8.83239C8.83291 8.70034 8.8849 8.57351 8.9779 8.47976C9.0705 8.38655 9.19632 8.33391 9.32771 8.33342C9.4591 8.33293 9.58531 8.38462 9.67861 8.47714L12.0196 10.8152C12.1131 10.9084 12.166 11.0347 12.1667 11.1668C12.1674 11.2988 12.1157 11.4257 12.0231 11.5198C11.9773 11.5661 11.9227 11.603 11.8626 11.6282C11.8025 11.6534 11.738 11.6665 11.6728 11.6668C11.6076 11.667 11.543 11.6544 11.4828 11.6296C11.4225 11.6048 11.3676 11.5684 11.3215 11.5224L8.98028 9.18404C8.88665 9.09092 8.83381 8.96445 8.83336 8.83239Z" fill="#5475F7"/>
</g>
</svg>
