<svg width="21" height="20" viewBox="0 0 21 20" fill="none" xmlns="http://www.w3.org/2000/svg">
<g id="&#229;&#188;&#130;&#229;&#184;&#184;&#232;&#174;&#190;&#229;&#164;&#135;">
<path id="&#229;&#188;&#130;&#229;&#184;&#184;&#232;&#174;&#190;&#229;&#164;&#135;_2" fill-rule="evenodd" clip-rule="evenodd" d="M1.2612 13.8268C0.758658 12.6136 0.5 11.3132 0.5 10C0.5 7.34783 1.55357 4.8043 3.42893 2.92893C5.3043 1.05357 7.84783 0 10.5 0C13.1522 0 15.6957 1.05357 17.5711 2.92893C19.4464 4.8043 20.5 7.34783 20.5 10C20.5 11.3132 20.2413 12.6136 19.7388 13.8268C19.2362 15.0401 18.4997 16.1425 17.5711 17.0711C16.6425 17.9997 15.5401 18.7362 14.3268 19.2388C13.1136 19.7413 11.8132 20 10.5 20C9.18678 20 7.88642 19.7413 6.67316 19.2388C5.45991 18.7362 4.35752 17.9997 3.42893 17.0711C2.50035 16.1425 1.76375 15.0401 1.2612 13.8268ZM10.112 11.8586C10.0024 11.7673 9.92829 11.6404 9.90255 11.5L9.50255 6.1C9.49276 5.96139 9.51118 5.82224 9.55669 5.69095C9.60219 5.55966 9.67385 5.43896 9.76731 5.33615C9.86078 5.23333 9.97413 5.15053 10.1005 5.09276C10.2269 5.03498 10.3636 5.00343 10.5026 5C10.7676 5.00056 11.0216 5.10609 11.209 5.29351C11.3965 5.48092 11.502 5.73495 11.5026 6L11.1026 11.5C11.0768 11.6404 11.0027 11.7673 10.8931 11.8586C10.7834 11.95 10.6453 12 10.5026 12C10.3599 12 10.2217 11.95 10.112 11.8586ZM9.94698 13.1685C10.1114 13.0586 10.3048 13 10.5026 13C10.636 12.9919 10.7696 13.0123 10.8946 13.0597C11.0196 13.1071 11.133 13.1805 11.2276 13.275C11.3221 13.3695 11.3955 13.483 11.4429 13.608C11.4903 13.733 11.5106 13.8666 11.5026 14C11.5026 14.1978 11.4439 14.3911 11.334 14.5556C11.2241 14.72 11.068 14.8482 10.8852 14.9239C10.7025 14.9996 10.5014 15.0194 10.3075 14.9808C10.1135 14.9422 9.9353 14.847 9.79545 14.7071C9.65559 14.5673 9.56035 14.3891 9.52177 14.1951C9.48318 14.0011 9.50299 13.8 9.57867 13.6173C9.65436 13.4346 9.78253 13.2784 9.94698 13.1685Z" fill="#FF7979"/>
</g>
</svg>
