<svg width="21" height="20" viewBox="0 0 21 20" fill="none" xmlns="http://www.w3.org/2000/svg">
<g id="&#231;&#166;&#187;&#231;&#186;&#191;&#232;&#174;&#190;&#229;&#164;&#135;">
<path id="&#231;&#166;&#187;&#231;&#186;&#191;&#232;&#174;&#190;&#229;&#164;&#135;_2" fill-rule="evenodd" clip-rule="evenodd" d="M1.2612 13.8268C0.758658 12.6136 0.5 11.3132 0.5 10C0.5 7.34783 1.55357 4.8043 3.42893 2.92893C5.3043 1.05357 7.84783 0 10.5 0C13.1522 0 15.6957 1.05357 17.5711 2.92893C19.4464 4.8043 20.5 7.34783 20.5 10C20.5 11.3132 20.2413 12.6136 19.7388 13.8268C19.2362 15.0401 18.4997 16.1425 17.5711 17.0711C16.6425 17.9997 15.5401 18.7362 14.3268 19.2388C13.1136 19.7413 11.8132 20 10.5 20C9.18678 20 7.88642 19.7413 6.67316 19.2388C5.45991 18.7362 4.35752 17.9997 3.42893 17.0711C2.50035 16.1425 1.76375 15.0401 1.2612 13.8268ZM8.98262 10.6477C8.80233 10.7223 8.60909 10.7605 8.41399 10.7601L8.41411 10.76C8.21885 10.7604 8.02545 10.7221 7.84503 10.6475C7.6646 10.5728 7.50072 10.4632 7.36279 10.325L5.93443 8.89689C5.35519 8.31585 5.35519 7.37577 5.93443 6.79472L7.29439 5.43452C7.87543 4.85516 8.81575 4.85516 9.39679 5.43452L10.8252 6.86301C11.4042 7.44405 11.4042 8.38389 10.8252 8.96493C10.788 9.00226 10.7438 9.03188 10.6952 9.05209C10.6465 9.0723 10.5944 9.0827 10.5417 9.0827C10.489 9.0827 10.4369 9.0723 10.3882 9.05209C10.3396 9.03188 10.2954 9.00226 10.2583 8.96493C10.221 8.92776 10.1915 8.88361 10.1713 8.835C10.1512 8.7864 10.1408 8.7343 10.1409 8.68168C10.1409 8.62906 10.1513 8.57697 10.1715 8.52838C10.1917 8.47979 10.2212 8.43567 10.2585 8.39853C10.387 8.27001 10.4591 8.09574 10.4591 7.91403C10.4591 7.73232 10.387 7.55804 10.2585 7.42953L8.83003 6.00152C8.7015 5.87309 8.52723 5.80094 8.34553 5.80094C8.16383 5.80094 7.98956 5.87309 7.86103 6.00152L6.50119 7.36149C6.37273 7.49 6.30056 7.66428 6.30056 7.84599C6.30056 8.0277 6.37273 8.20197 6.50119 8.33049L7.92955 9.75873C8.05821 9.88693 8.23243 9.95892 8.41405 9.95892C8.59568 9.95892 8.7699 9.88693 8.89855 9.75873C8.93571 9.72146 8.97985 9.69189 9.02846 9.67171C9.07707 9.65153 9.12918 9.64114 9.18181 9.64114C9.23444 9.64114 9.28655 9.65153 9.33516 9.67171C9.38377 9.69189 9.42791 9.72146 9.46507 9.75873C9.50238 9.79593 9.53198 9.84013 9.55216 9.8888C9.57234 9.93747 9.58271 9.98965 9.58266 10.0423C9.58262 10.095 9.57217 10.1472 9.5519 10.1958C9.53164 10.2444 9.50197 10.2886 9.46459 10.3257C9.32671 10.4638 9.16292 10.5732 8.98262 10.6477ZM13.224 14.8883C13.0436 14.9627 12.8502 15.0007 12.655 15H12.6548C12.4595 15.0008 12.266 14.9628 12.0855 14.8882C11.9051 14.8135 11.7412 14.7037 11.6036 14.5652L10.1756 13.1372C9.59623 12.5561 9.59623 11.6159 10.1756 11.0348C10.2128 10.9975 10.2569 10.9679 10.3056 10.9477C10.3542 10.9274 10.4064 10.917 10.459 10.917C10.5117 10.917 10.5639 10.9274 10.6125 10.9477C10.6611 10.9679 10.7053 10.9975 10.7425 11.0348C10.7797 11.072 10.8093 11.1161 10.8295 11.1647C10.8497 11.2133 10.8601 11.2654 10.8601 11.3181C10.8601 11.3707 10.8497 11.4228 10.8295 11.4714C10.8093 11.52 10.7797 11.5642 10.7425 11.6013C10.6143 11.7301 10.5424 11.9043 10.5424 12.086C10.5424 12.2676 10.6143 12.4418 10.7425 12.5706L12.1705 13.9986C12.4263 14.2547 12.8836 14.2547 13.1395 13.9986L14.4996 12.6386C14.6282 12.5103 14.699 12.3381 14.699 12.1543C14.6995 12.0643 14.6821 11.9752 14.6478 11.892C14.6136 11.8088 14.5632 11.7332 14.4996 11.6696L13.0712 10.2414C12.9427 10.1129 12.7684 10.0408 12.5867 10.0408C12.405 10.0408 12.2307 10.1129 12.1022 10.2414C12.065 10.2787 12.0209 10.3083 11.9723 10.3284C11.9236 10.3486 11.8715 10.359 11.8189 10.359C11.7662 10.359 11.7141 10.3486 11.6655 10.3284C11.6169 10.3083 11.5727 10.2787 11.5356 10.2414C11.4983 10.2042 11.4687 10.1601 11.4485 10.1115C11.4283 10.0629 11.418 10.0107 11.418 9.95811C11.418 9.90548 11.4283 9.85337 11.4485 9.80476C11.4687 9.75616 11.4983 9.71201 11.5356 9.67485C12.1166 9.09561 13.0568 9.09561 13.6378 9.67485L15.0663 11.1031C15.3458 11.3828 15.5 11.7563 15.5 12.1543C15.5007 12.3496 15.4627 12.5431 15.3882 12.7236C15.3138 12.9041 15.2044 13.0682 15.0663 13.2062L13.7062 14.5663C13.5683 14.7044 13.4044 14.8138 13.224 14.8883ZM6.37219 12.1776C6.34654 12.183 6.3204 12.1857 6.29419 12.1856H6.29443C6.19595 12.186 6.10086 12.1496 6.02774 12.0837C5.95462 12.0177 5.90871 11.9269 5.89898 11.8289C5.88925 11.7309 5.9164 11.6328 5.97512 11.5537C6.03384 11.4746 6.11992 11.4203 6.21655 11.4013L7.31659 11.1805C7.36758 11.1701 7.42013 11.1699 7.4712 11.1799C7.52228 11.1899 7.57087 11.2099 7.61418 11.2387C7.65749 11.2676 7.69466 11.3047 7.72356 11.348C7.75246 11.3913 7.7725 11.4399 7.78255 11.4909C7.79274 11.5419 7.79279 11.5944 7.78269 11.6455C7.77258 11.6965 7.75253 11.745 7.72366 11.7883C7.6948 11.8315 7.6577 11.8687 7.61447 11.8976C7.57125 11.9265 7.52275 11.9466 7.47175 11.9568L6.37219 12.1776ZM8.96294 14.5118C8.89217 14.5698 8.80349 14.6016 8.71195 14.6017V14.6018C8.68541 14.6018 8.65895 14.5989 8.63299 14.5934C8.58209 14.5832 8.53371 14.563 8.49061 14.5341C8.4475 14.5051 8.41053 14.468 8.3818 14.4248C8.35307 14.3815 8.33314 14.333 8.32316 14.2821C8.31318 14.2311 8.31334 14.1787 8.32363 14.1278L8.54347 13.0286C8.55354 12.9775 8.57364 12.9289 8.6026 12.8855C8.63156 12.8422 8.66881 12.805 8.7122 12.7762C8.7556 12.7473 8.80428 12.7273 8.85544 12.7174C8.9066 12.7074 8.95922 12.7077 9.01027 12.7182C9.06123 12.7284 9.10967 12.7485 9.15283 12.7775C9.19599 12.8064 9.23302 12.8436 9.26179 12.8868C9.29056 12.9301 9.31051 12.9786 9.3205 13.0296C9.33048 13.0806 9.33031 13.1331 9.31999 13.184L9.10027 14.2832C9.08224 14.373 9.03372 14.4537 8.96294 14.5118ZM6.99487 14.0229C6.94678 14.0428 6.89524 14.053 6.84319 14.0529V14.0533C6.7912 14.0533 6.73973 14.043 6.69173 14.023C6.64373 14.003 6.60015 13.9738 6.56347 13.9369C6.52658 13.9002 6.49731 13.8566 6.47734 13.8085C6.45736 13.7605 6.44708 13.7089 6.44708 13.6569C6.44708 13.6048 6.45736 13.5533 6.47734 13.5053C6.49731 13.4572 6.52658 13.4136 6.56347 13.3769L7.88299 12.0579C7.91972 12.0211 7.96336 11.9919 8.0114 11.972C8.05944 11.952 8.11094 11.9418 8.16295 11.9418C8.21496 11.9418 8.26647 11.952 8.31451 11.972C8.36255 11.9919 8.40618 12.0211 8.44291 12.0579C8.47982 12.0946 8.5091 12.1383 8.52909 12.1864C8.54907 12.2344 8.55936 12.286 8.55936 12.338C8.55936 12.3901 8.54907 12.4416 8.52909 12.4897C8.5091 12.5377 8.47982 12.5814 8.44291 12.6181L7.12339 13.9369C7.08663 13.9737 7.04295 14.003 6.99487 14.0229ZM12.3189 7.1998C12.2482 7.25784 12.1597 7.28973 12.0682 7.29009V7.28997C12.0397 7.29057 12.0112 7.28734 11.9835 7.28037C11.7759 7.23909 11.6371 7.03077 11.6799 6.81621L11.9007 5.71724C11.9108 5.66617 11.931 5.61759 11.9599 5.57432C11.9889 5.53105 12.0261 5.49392 12.0695 5.46509C12.1128 5.43625 12.1615 5.41627 12.2126 5.40628C12.2637 5.3963 12.3162 5.39652 12.3673 5.40692C12.4182 5.4171 12.4666 5.43722 12.5098 5.46614C12.553 5.49506 12.59 5.53221 12.6188 5.57545C12.6475 5.6187 12.6675 5.6672 12.6775 5.71818C12.6875 5.76915 12.6874 5.8216 12.6771 5.87252L12.4563 6.97149C12.4381 7.06113 12.3896 7.14177 12.3189 7.1998ZM13.684 8.82021C13.6585 8.82561 13.6325 8.8283 13.6064 8.82825C13.5079 8.82859 13.4129 8.79223 13.3398 8.72625C13.2667 8.66027 13.2208 8.56942 13.2111 8.47143C13.2013 8.37344 13.2285 8.27534 13.2872 8.1963C13.3459 8.11725 13.432 8.06293 13.5286 8.04393L14.6282 7.82349C14.6792 7.81311 14.7317 7.8129 14.7827 7.82289C14.8338 7.83288 14.8823 7.85287 14.9256 7.8817C14.9689 7.91053 15.0061 7.94763 15.035 7.99088C15.0639 8.03413 15.084 8.08266 15.094 8.13369C15.1042 8.18467 15.1043 8.23716 15.0942 8.28816C15.0841 8.33916 15.0641 8.38767 15.0352 8.43093C15.0064 8.47419 14.9693 8.51134 14.9261 8.54027C14.8829 8.5692 14.8345 8.58933 14.7835 8.59953L13.684 8.82021ZM12.9895 8.02901C12.9415 8.04898 12.8899 8.05927 12.8379 8.05929L12.8378 8.05941C12.7857 8.05942 12.7342 8.04915 12.6861 8.02917C12.638 8.0092 12.5943 7.97991 12.5576 7.94301C12.5207 7.9063 12.4914 7.86267 12.4715 7.81461C12.4515 7.76656 12.4412 7.71503 12.4412 7.66299C12.4412 7.61095 12.4515 7.55942 12.4715 7.51136C12.4914 7.46331 12.5207 7.41967 12.5576 7.38297L13.8771 6.06464C13.9138 6.02782 13.9575 5.9986 14.0055 5.97866C14.0536 5.95872 14.1051 5.94846 14.1571 5.94846C14.2091 5.94846 14.2606 5.95872 14.3086 5.97866C14.3567 5.9986 14.4003 6.02782 14.437 6.06464C14.4739 6.10135 14.5032 6.14498 14.5231 6.19302C14.5431 6.24106 14.5534 6.29258 14.5534 6.3446C14.5534 6.39663 14.5431 6.44814 14.5231 6.49619C14.5032 6.54423 14.4739 6.58786 14.437 6.62456L13.1179 7.94289C13.0812 7.97977 13.0375 8.00903 12.9895 8.02901Z" fill="#AAAAAA"/>
</g>
</svg>
