<svg width="18" height="18" viewBox="0 0 18 18" fill="none" xmlns="http://www.w3.org/2000/svg">
<g id="&#229;&#143;&#145;&#231;&#148;&#181;&#233;&#135;&#143;&#231;&#187;&#159;&#232;&#174;&#161;">
<path id="&#229;&#143;&#145;&#231;&#148;&#181;&#233;&#135;&#143;&#231;&#187;&#159;&#232;&#174;&#161;_2" d="M2.08767 11.5714C1.87462 11.5714 1.67029 11.6561 1.51964 11.8068C1.36899 11.9575 1.28436 12.1619 1.28436 12.375V17.1964C1.28436 17.4095 1.36899 17.6139 1.51964 17.7646C1.67029 17.9153 1.87462 18 2.08767 18C2.30073 18 2.50505 17.9153 2.65571 17.7646C2.80636 17.6139 2.89099 17.4095 2.89099 17.1964V12.375C2.89099 12.1619 2.80636 11.9575 2.65571 11.8068C2.50505 11.6561 2.30073 11.5714 2.08767 11.5714ZM6.6933 6.42857C6.48024 6.42857 6.27592 6.51323 6.12527 6.66393C5.97461 6.81463 5.88998 7.01902 5.88998 7.23214V17.1964C5.88998 17.4095 5.97461 17.6139 6.12527 17.7646C6.27592 17.9153 6.48024 18 6.6933 18C6.90635 18 7.11068 17.9153 7.26133 17.7646C7.41198 17.6139 7.49662 17.4095 7.49662 17.1964V7.23214C7.49662 7.01902 7.41198 6.81463 7.26133 6.66393C7.11068 6.51323 6.90635 6.42857 6.6933 6.42857ZM15.9047 6.42857C15.6917 6.42857 15.4874 6.51323 15.3367 6.66393C15.1861 6.81463 15.1014 7.01902 15.1014 7.23214V17.1964C15.1014 17.4095 15.1861 17.6139 15.3367 17.7646C15.4874 17.9153 15.6917 18 15.9047 18C16.1178 18 16.3221 17.9153 16.4728 17.7646C16.6234 17.6139 16.7081 17.4095 16.7081 17.1964V7.23214C16.7081 7.01902 16.6234 6.81463 16.4728 6.66393C16.3221 6.51323 16.1178 6.42857 15.9047 6.42857ZM11.2991 10.2857C11.0861 10.2857 10.8817 10.3704 10.7311 10.5211C10.5804 10.6718 10.4958 10.8762 10.4958 11.0893V17.1964C10.4958 17.4095 10.5804 17.6139 10.7311 17.7646C10.8817 17.9153 11.0861 18 11.2991 18C11.5122 18 11.7165 17.9153 11.8672 17.7646C12.0178 17.6139 12.1024 17.4095 12.1024 17.1964V11.0893C12.1024 10.8762 12.0178 10.6718 11.8672 10.5211C11.7165 10.3704 11.5122 10.2857 11.2991 10.2857ZM17.1967 0H14.2981C14.0851 0 13.8807 0.0846617 13.7301 0.235361C13.5794 0.386059 13.4948 0.590451 13.4948 0.803571C13.4948 1.01669 13.5794 1.22108 13.7301 1.37178C13.8807 1.52248 14.0851 1.60714 14.2981 1.60714H15.252L11.3889 5.42632L7.47372 1.50891C7.32952 1.36469 7.13532 1.28158 6.93147 1.27683C6.72761 1.27207 6.52976 1.34605 6.379 1.48339C6.36802 1.4933 6.35718 1.50355 6.34646 1.51413L0.234419 7.62911C0.0843231 7.77925 0 7.98289 0 8.19522C0 8.40756 0.0843231 8.6112 0.234419 8.76134C0.384515 8.91148 0.588089 8.99583 0.800357 8.99583C1.01262 8.99583 1.2162 8.91148 1.36629 8.76134L6.9126 3.21308L10.7703 7.07143C10.7842 7.0879 10.7985 7.10377 10.8137 7.11924C10.9271 7.2345 11.073 7.31243 11.2318 7.34263L11.2427 7.34444L11.266 7.34846C11.3858 7.36666 11.5082 7.3571 11.6237 7.32053C11.7392 7.28396 11.8448 7.22135 11.9323 7.13752L11.9446 7.12587L16.3934 2.73013V3.69643C16.3934 3.90955 16.478 4.11394 16.6286 4.26464C16.7793 4.41534 16.9836 4.5 17.1967 4.5C17.4097 4.5 17.6141 4.41534 17.7647 4.26464C17.9154 4.11394 18 3.90955 18 3.69643V0.803571C18 0.590451 17.9154 0.386059 17.7647 0.235361C17.6141 0.0846617 17.4097 0 17.1967 0Z" fill="#7989B2"/>
</g>
</svg>
