<svg xmlns="http://www.w3.org/2000/svg" xmlns:xlink="http://www.w3.org/1999/xlink" width="80" height="80" viewBox="0 0 80 80" fill="none">
<path d="M40 80C62.0914 80 80 62.0914 80 40C80 17.9086 62.0914 0 40 0C17.9086 0 0 17.9086 0 40C0 62.0914 17.9086 80 40 80ZM23.9018 27.428C22.9223 26.4549 22.9223 24.8771 23.9018 23.904C24.8813 22.9309 26.4693 22.9309 27.4488 23.904L40.1052 36.4784L52.7617 23.904C53.7412 22.9309 55.3292 22.9309 56.3087 23.904C57.2882 24.8771 57.2882 26.4549 56.3087 27.428L43.6523 40.0024L56.3049 52.573C57.2844 53.5461 57.2844 55.1239 56.3049 56.097C55.3255 57.0701 53.7374 57.0701 52.7579 56.097L40.1052 43.5264L27.4526 56.097C26.4731 57.0701 24.885 57.0701 23.9056 56.097C22.9261 55.1239 22.9261 53.5461 23.9056 52.573L36.5583 40.0024L23.9018 27.428Z" fill-rule="evenodd"  fill="url(#linear_fill_20_271)" >
</path>
<defs>
<linearGradient id="linear_fill_20_271" x1="40" y1="80" x2="40" y2="0" gradientUnits="userSpaceOnUse">
<stop offset="0" stop-color="#F0AF69"  />
<stop offset="1" stop-color="#EDC882"  />
</linearGradient>
</defs>
</svg>
