<svg width="30" height="30" viewBox="0 0 30 30" fill="none" xmlns="http://www.w3.org/2000/svg">
<g id="Property 1=&#231;&#148;&#181;&#231;&#171;&#153;&#232;&#175;&#166;&#230;&#131;&#133;-&#230;&#156;&#170;&#233;&#128;&#137;&#228;&#184;&#173;">
<path id="Vector" d="M15.0017 30C12.0349 30.0003 9.13463 29.1209 6.66767 27.4729C4.20072 25.8248 2.27787 23.4823 1.1423 20.7414C0.00672385 18.0006 -0.290566 14.9845 0.288023 12.0747C0.866611 9.16485 2.29509 6.49195 4.39281 4.394C6.49053 2.29604 9.16327 0.867265 12.073 0.28835C14.9828 -0.290564 17.9989 0.00638779 20.7399 1.14165C23.4809 2.27692 25.8236 4.1995 27.4719 6.66628C29.1202 9.13305 30 12.0332 30 15C29.9987 18.9775 28.4181 22.7918 25.6057 25.6045C22.7933 28.4172 18.9792 29.9982 15.0017 30Z" fill="#CAD2E6"/>
<path id="Vector_2" d="M15.8313 8.53951C15.9807 8.36974 16.1824 8.25458 16.4045 8.21219C16.6266 8.1698 16.8566 8.20261 17.058 8.30544C17.2594 8.40826 17.4208 8.57525 17.5168 8.78002C17.6127 8.9848 17.6377 9.21571 17.5879 9.43628L16.5803 13.9857H18.5199C18.7187 13.9864 18.913 14.0453 19.0789 14.1549C19.2448 14.2645 19.375 14.4202 19.4537 14.6028C19.5323 14.7854 19.5559 14.987 19.5216 15.1829C19.4873 15.3787 19.3966 15.5603 19.2605 15.7053L13.7942 21.4907C13.6402 21.6543 13.4364 21.7624 13.2145 21.798C12.9926 21.8336 12.7652 21.7948 12.5677 21.6876C12.3702 21.5804 12.2138 21.4109 12.1227 21.2055C12.0317 21 12.0112 20.7702 12.0645 20.5519L13.1426 16.0294H11.4969C11.3009 16.0288 11.1092 15.9717 10.9448 15.8651C10.7803 15.7585 10.65 15.6068 10.5694 15.4281C10.4889 15.2495 10.4614 15.0514 10.4904 14.8575C10.5193 14.6637 10.6035 14.4823 10.7327 14.335L15.838 8.53951H15.8313Z" fill="white"/>
</g>
</svg>
