<svg width="30" height="29" viewBox="0 0 30 29" fill="none" xmlns="http://www.w3.org/2000/svg">
<g id="Property 1=&#232;&#174;&#190;&#231;&#189;&#174;-&#230;&#156;&#170;&#233;&#128;&#137;&#228;&#184;&#173;">
<path id="Vector" d="M29.6795 15.3834L23.4249 26.9004C23.2072 27.3038 22.8868 27.6405 22.4973 27.8753C22.1078 28.1101 21.6633 28.2344 21.2104 28.2353H8.78964C8.33666 28.2344 7.89223 28.1101 7.5027 27.8753C7.11318 27.6405 6.79285 27.3038 6.57513 26.9004L0.320507 15.3834C0.110255 14.9957 0 14.5603 0 14.1176C0 13.675 0.110255 13.2396 0.320507 12.8519L6.57513 1.33486C6.79285 0.931483 7.11318 0.594832 7.5027 0.360035C7.89223 0.125238 8.33666 0.000901836 8.78964 0H21.2104C21.6633 0.00090183 22.1078 0.125238 22.4973 0.360035C22.8868 0.594832 23.2072 0.931483 23.4249 1.33486L29.6795 12.8519C29.8897 13.2396 30 13.675 30 14.1176C30 14.5603 29.8897 14.9957 29.6795 15.3834Z" fill="#CAD2E6"/>
<path id="Vector_2" d="M14.5427 18.4297C12.103 18.4297 10.089 16.4157 10.089 13.8854C10.089 11.3552 12.103 9.34116 14.5427 9.34116C16.982 9.34116 18.9963 11.3552 18.9963 13.8854C18.9963 16.4156 16.982 18.4297 14.5427 18.4297Z" fill="#CAD2E6" stroke="white" stroke-width="2.8"/>
</g>
</svg>
