<svg width="36" height="36" viewBox="0 0 36 36" fill="none" xmlns="http://www.w3.org/2000/svg">
<g id="&#230;&#155;&#180;&#229;&#164;&#154;">
<path id="&#230;&#155;&#180;&#229;&#164;&#154;_2" fill-rule="evenodd" clip-rule="evenodd" d="M35 18C35 27.3888 27.3888 35 18 35C8.61116 35 1 27.3888 1 18C1 8.61116 8.61116 1 18 1C27.3888 1 35 8.61116 35 18ZM36 18C36 27.9411 27.9411 36 18 36C8.05887 36 0 27.9411 0 18C0 8.05887 8.05887 0 18 0C27.9411 0 36 8.05887 36 18ZM8.52632 19.8947C9.57275 19.8947 10.4211 19.0464 10.4211 18C10.4211 16.9536 9.57275 16.1053 8.52632 16.1053C7.47988 16.1053 6.63158 16.9536 6.63158 18C6.63158 19.0464 7.47988 19.8947 8.52632 19.8947ZM19.8947 18C19.8947 19.0464 19.0464 19.8947 18 19.8947C16.9536 19.8947 16.1053 19.0464 16.1053 18C16.1053 16.9536 16.9536 16.1053 18 16.1053C19.0464 16.1053 19.8947 16.9536 19.8947 18ZM27.4737 19.8947C28.5201 19.8947 29.3684 19.0464 29.3684 18C29.3684 16.9536 28.5201 16.1053 27.4737 16.1053C26.4272 16.1053 25.5789 16.9536 25.5789 18C25.5789 19.0464 26.4272 19.8947 27.4737 19.8947Z" fill="#7989B2"/>
</g>
</svg>
