<svg width="28" height="28" viewBox="0 0 28 28" fill="none" xmlns="http://www.w3.org/2000/svg">
<g id="&#230;&#156;&#136;&#229;&#143;&#145;&#231;&#148;&#181;&#233;&#135;&#143;">
<path id="&#230;&#156;&#136;&#229;&#143;&#145;&#231;&#148;&#181;&#233;&#135;&#143;_2" fill-rule="evenodd" clip-rule="evenodd" d="M27.9999 13.9944C27.9999 16.1856 27.4935 18.2603 26.5919 20.1086C27.4597 20.9429 27.9999 22.1154 27.9998 23.4141C27.9998 25.9468 25.9458 28 23.4121 28C22.111 28 20.9366 27.4584 20.1016 26.5887C18.2565 27.4854 16.186 27.9889 14 27.9889C6.2795 27.9889 0 21.7119 0 13.9944C0 6.27702 6.2795 0 14 0C21.7203 0 27.9999 6.2771 27.9999 13.9944ZM23.4121 18.8281C23.9074 18.8276 24.3995 18.9075 24.8693 19.0644C25.591 17.524 25.9945 15.8058 25.9945 13.9944C25.9945 7.37886 20.6182 2.00463 14 2.00463C7.38177 2.00463 2.00542 7.38422 2.00542 13.9944C2.00542 20.6047 7.38705 25.9843 14 25.9843C15.8064 25.9843 17.521 25.5833 19.0591 24.8654C18.9032 24.3974 18.824 23.9073 18.8244 23.414C18.8244 20.8813 20.8784 18.8281 23.4121 18.8281ZM24.2565 20.1693C24.1775 20.1131 24.085 20.1971 24.1206 20.2873C25.4921 23.7638 22.9022 25.3631 21.885 25.84C21.7897 25.8846 21.8095 26.0327 21.9145 26.0392C22.92 26.1007 25.4465 26.0438 26 24C26.5361 22.0204 24.9076 20.6327 24.2565 20.1693ZM15.971 12.78H19.9424L11.3544 24.1429L12.6648 15.4536H8.04819L17.3015 4.09071L15.971 12.78Z" fill="#7989B2"/>
</g>
</svg>
