<svg width="28" height="28" viewBox="0 0 28 28" fill="none" xmlns="http://www.w3.org/2000/svg">
<g id="&#230;&#151;&#165;&#229;&#143;&#145;&#231;&#148;&#181;&#233;&#135;&#143;">
<path id="&#230;&#151;&#165;&#229;&#143;&#145;&#231;&#148;&#181;&#233;&#135;&#143;_2" fill-rule="evenodd" clip-rule="evenodd" d="M27.9998 13.9944C27.9998 6.2771 21.7202 0 13.9998 0C6.27938 0 -0.00012207 6.27702 -0.00012207 13.9944C-0.00012207 21.7119 6.27938 27.9889 13.9998 27.9889C16.1859 27.9889 18.2564 27.4854 20.1015 26.5887C20.9365 27.4584 22.1109 28 23.412 28C25.9457 28 27.9997 25.9468 27.9997 23.4141C27.9997 22.1155 27.4595 20.943 26.5916 20.1087C27.4933 18.2603 27.9998 16.1856 27.9998 13.9944ZM18.8243 23.414C18.8239 23.9073 18.9031 24.3974 19.059 24.8654C17.5209 25.5833 15.8063 25.9843 13.9998 25.9843C7.38693 25.9843 2.0053 20.6047 2.0053 13.9944C2.0053 7.38422 7.38165 2.00463 13.9998 2.00463C20.618 2.00463 25.9944 7.37886 25.9944 13.9944C25.9944 15.8058 25.5909 17.524 24.8691 19.0645V19.0644C24.3994 18.9075 23.9073 18.8276 23.412 18.8281C20.8783 18.8281 18.8243 20.8813 18.8243 23.414ZM23.4292 26.4978C21.8086 26.4978 20.4948 25.1846 20.4948 23.5645C20.4948 21.9445 21.8086 20.6312 23.4292 20.6312C25.0499 20.6312 26.3637 21.9445 26.3637 23.5645C26.3637 25.1846 25.0499 26.4978 23.4292 26.4978ZM19.9423 12.78H15.9708L17.3014 4.09071L8.04807 15.4536H12.6647L11.3543 24.1429L19.9423 12.78ZM22.1147 24.9053C21.7608 24.5515 21.5619 24.0716 21.5619 23.5712C21.5619 23.0708 21.7608 22.591 22.1147 22.2372C22.4687 21.8833 22.9487 21.6846 23.4493 21.6846C23.9499 21.6846 24.4299 21.8833 24.7839 22.2372C25.1378 22.591 25.3367 23.0708 25.3367 23.5712C25.3367 24.0716 25.1378 24.5515 24.7839 24.9053C24.4299 25.2591 23.9499 25.4578 23.4493 25.4578C22.9487 25.4578 22.4687 25.2591 22.1147 24.9053Z" fill="#7989B2"/>
</g>
</svg>
