<svg width="20" height="20" viewBox="0 0 20 20" fill="none" xmlns="http://www.w3.org/2000/svg">
<g id="&#231;&#180;&#175;&#232;&#174;&#161;&#229;&#143;&#145;&#231;&#148;&#181;&#233;&#135;&#143;">
<path id="&#231;&#180;&#175;&#232;&#174;&#161;&#229;&#143;&#145;&#231;&#148;&#181;&#233;&#135;&#143;_2" fill-rule="evenodd" clip-rule="evenodd" d="M19.9999 9.99605C19.9999 11.5611 19.6382 13.0431 18.9942 14.3633C19.614 14.9592 19.9999 15.7967 19.9999 16.7243C19.9999 18.5334 18.5327 20 16.7229 20C15.7935 20 14.9546 19.6132 14.3582 18.992C13.0403 19.6325 11.5614 19.9921 9.99989 19.9921C4.48527 19.9921 -0.00012207 15.5085 -0.00012207 9.99605C-0.00012207 4.48362 4.48525 0 9.99987 0C15.5145 0 19.9999 4.48362 19.9999 9.99605ZM14.9643 18.2574H18.5037V17.6686H14.9643V18.2574ZM14.9643 17.0805H18.5037V16.4917H14.9643V17.0805ZM14.9643 15.9022H18.5037V15.3134H14.9643V15.9022ZM16.7229 13.4487C17.0868 13.4487 17.4367 13.5081 17.7638 13.6175C18.2793 12.5172 18.5675 11.2899 18.5675 9.99605C18.5675 5.2706 14.7272 1.43185 9.99989 1.43185C5.27257 1.43185 1.4323 5.27442 1.4323 9.99605C1.4323 14.7177 5.27639 18.5602 9.99989 18.5602C11.2902 18.5602 12.5149 18.2738 13.6136 17.761C13.5049 17.4352 13.4459 17.0867 13.4459 16.7243C13.4459 14.9152 14.9131 13.4487 16.7229 13.4487ZM11.4077 9.12855H14.2445L8.11017 17.245L9.04616 11.0383H5.74858L12.3581 2.9219L11.4077 9.12855Z" fill="#7989B2"/>
</g>
</svg>
