<svg width="30" height="30" viewBox="0 0 30 30" fill="none" xmlns="http://www.w3.org/2000/svg">
<g id="&#232;&#174;&#190;&#229;&#164;&#135;&#229;&#136;&#151;&#232;&#161;&#168;-&#230;&#156;&#170;&#233;&#128;&#137;&#228;&#184;&#173;">
<path id="&#232;&#174;&#190;&#229;&#164;&#135;&#229;&#136;&#151;&#232;&#161;&#168;-&#230;&#156;&#170;&#233;&#128;&#137;&#228;&#184;&#173;_2" d="M23.0355 0C24.8826 0 26.6541 0.733758 27.9601 2.03985C29.2662 3.34595 30 5.1174 30 6.9645C30 8.8116 29.2662 10.583 27.9601 11.8891C26.6541 13.1952 24.8826 13.929 23.0355 13.929C21.1884 13.929 19.417 13.1952 18.1109 11.8891C16.8048 10.583 16.071 8.8116 16.071 6.9645C16.071 5.1174 16.8048 3.34595 18.1109 2.03985C19.417 0.733758 21.1884 0 23.0355 0ZM2.145 0H11.787C12.972 0 13.9305 0.96 13.9305 2.1435V11.7855C13.9305 12.9705 12.9705 13.929 11.787 13.929H2.145C0.96 13.929 0.00149992 12.969 0.00149992 11.7855V2.145C-6.05069e-08 0.9585 0.96 0 2.1435 0H2.145ZM2.145 16.071H11.787C12.972 16.071 13.9305 17.031 13.9305 18.2145V27.8565C13.9305 29.0415 12.9705 30 11.787 30H2.145C0.9585 30 0 29.04 0 27.8565V18.2145C0 17.0295 0.96 16.071 2.1435 16.071H2.145ZM18.216 16.071H27.858C29.043 16.071 30.0015 17.031 30.0015 18.2145V27.8565C30.0015 29.0415 29.0415 30 27.858 30H18.216C17.031 30 16.0725 29.04 16.0725 27.8565V18.2145C16.0725 17.0295 17.0325 16.071 18.216 16.071Z" fill="#CAD2E6"/>
</g>
</svg>
