<svg xmlns="http://www.w3.org/2000/svg" xmlns:xlink="http://www.w3.org/1999/xlink" width="80" height="80" viewBox="0 0 80 80" fill="none">
<path d="M40 80C62.0914 80 80 62.0914 80 40C80 17.9086 62.0914 0 40 0C17.9086 0 0 17.9086 0 40C0 62.0914 17.9086 80 40 80ZM64.516 30.7555C65.1801 30.2052 65.6032 29.3742 65.6032 28.4443C65.6032 26.7874 64.26 25.4443 62.6032 25.4443C61.8616 25.4443 61.1828 25.7134 60.6592 26.1593L34.0198 48.5364L18.8199 35.9261C18.2981 35.4868 17.6244 35.2221 16.8889 35.2221C15.232 35.2221 13.8889 36.5652 13.8889 38.2221C13.8889 39.1591 14.3185 39.9958 14.9915 40.5459L32.1163 54.7532C33.2323 55.6791 34.8509 55.6741 35.9613 54.7414L64.516 30.7555Z" fill-rule="evenodd"  fill="url(#linear_fill_1_7110)" >
</path>
<defs>
<linearGradient id="linear_fill_1_7110" x1="40" y1="80" x2="40" y2="0" gradientUnits="userSpaceOnUse">
<stop offset="0" stop-color="#608AF6"  />
<stop offset="1" stop-color="#7DACFF"  />
</linearGradient>
</defs>
</svg>
