<svg width="28" height="31" viewBox="0 0 28 31" fill="none" xmlns="http://www.w3.org/2000/svg">
<g id="Property 1=&#231;&#148;&#181;&#231;&#171;&#153;-&#230;&#156;&#170;&#233;&#128;&#137;&#228;&#184;&#173;">
<path id="Subtract" fill-rule="evenodd" clip-rule="evenodd" d="M0.677984 11.5636C0.246966 11.9433 0 12.49 0 13.0644V28.9338C0 30.0383 0.895431 30.9338 2 30.9338H26C27.1046 30.9338 28 30.0383 28 28.9338V13.0644C28 12.49 27.753 11.9433 27.322 11.5636L15.983 1.5751C14.8495 0.576611 13.1505 0.576613 12.017 1.5751L0.677984 11.5636ZM15.8991 13.8766C16.2135 13.4225 16.1003 12.7996 15.6462 12.4852C15.1921 12.1708 14.5692 12.284 14.2548 12.738L9.94709 18.9591C9.73534 19.2649 9.71082 19.663 9.88343 19.9925C10.056 20.322 10.3973 20.5284 10.7692 20.5284H15.5336L12.9099 25.2649C12.6422 25.7481 12.8169 26.3566 13.3 26.6243C13.7832 26.8919 14.3918 26.7172 14.6594 26.2341L18.1055 20.013C18.2771 19.7032 18.2721 19.3258 18.0923 19.0208C17.9126 18.7157 17.5849 18.5284 17.2308 18.5284H12.678L15.8991 13.8766Z" fill="#9CB4C9"/>
</g>
</svg>
