<svg width="28" height="30" viewBox="0 0 28 30" fill="none" xmlns="http://www.w3.org/2000/svg">
<g id="Property 1=&#230;&#136;&#145;&#231;&#154;&#132;-&#230;&#156;&#170;&#233;&#128;&#137;&#228;&#184;&#173;">
<path id="&#230;&#136;&#145;&#231;&#154;&#132;-&#230;&#156;&#170;&#233;&#128;&#137;&#228;&#184;&#173;" fill-rule="evenodd" clip-rule="evenodd" d="M9.20252 16.8696H18.8019C23.876 16.8696 28.0044 20.8759 28 25.7998C28 28.1132 26.0601 30 23.6717 30H4.32825C1.94438 30 0 28.1175 0 25.7998C0 20.8759 4.12848 16.8696 9.20252 16.8696ZM22.699 7.9394C22.699 12.3162 19.0277 15.8788 14.5175 15.8788C10.0072 15.8788 6.33597 12.3162 6.33597 7.9394C6.33597 3.56261 10.0072 0 14.5175 0C19.0277 0 22.699 3.56261 22.699 7.9394ZM11.9352 9.5596C11.7827 9.32939 11.4724 9.26638 11.2422 9.41888C11.012 9.57138 10.949 9.88163 11.1015 10.1118C11.8169 11.1919 13.0623 11.9025 14.4731 11.9025C15.8838 11.9025 17.1293 11.1919 17.8447 10.1118C17.9972 9.88163 17.9342 9.57138 17.7039 9.41888C17.4737 9.26638 17.1635 9.32939 17.011 9.5596C16.4778 10.3646 15.543 10.9025 14.4731 10.9025C13.4031 10.9025 12.4684 10.3646 11.9352 9.5596Z" fill="#9CB4C9"/>
</g>
</svg>
