<svg width="28" height="30" viewBox="0 0 28 30" fill="none" xmlns="http://www.w3.org/2000/svg">
<g id="Property 1=&#230;&#166;&#130;&#232;&#167;&#136;-&#230;&#156;&#170;&#233;&#128;&#137;&#228;&#184;&#173;">
<path id="Union" fill-rule="evenodd" clip-rule="evenodd" d="M0 6C0 2.68629 2.68629 0 6 0H22C25.3137 0 28 2.68629 28 6V18.2775C28 21.5912 25.3137 24.2775 22 24.2775H6C2.68629 24.2775 0 21.5912 0 18.2775V6ZM21.0199 8.40109C21.4081 8.7939 21.4044 9.42705 21.0116 9.81528L15.2214 15.5378C14.8396 15.9152 14.2278 15.9237 13.8356 15.5571L10.7307 12.6543L8.30318 15.0222C7.90783 15.4078 7.27471 15.4 6.88908 15.0046C6.50344 14.6093 6.51131 13.9761 6.90666 13.5905L10.0178 10.5558C10.4003 10.1827 11.0086 10.1762 11.399 10.5412L14.4992 13.4396L19.6057 8.39279C19.9985 8.00456 20.6316 8.00828 21.0199 8.40109ZM3.11628 26.8786C2.25433 26.8786 1.55559 27.5774 1.55559 28.4393C1.55559 29.3013 2.25433 30 3.11628 30H24.8838C25.7457 30 26.4445 29.3013 26.4445 28.4393C26.4445 27.5774 25.7457 26.8786 24.8838 26.8786H3.11628Z" fill="#9CB4C9"/>
</g>
</svg>
